<?xml version="1.0" encoding="UTF-8"?>
<svg width="654px" height="44px" viewBox="0 0 654 44" version="1.1" xmlns="http://www.w3.org/2000/svg" xmlns:xlink="http://www.w3.org/1999/xlink">
    <!-- Generator: Sketch 43.2 (39069) - http://www.bohemiancoding.com/sketch -->
    <title>wide-logo</title>
    <desc>Created with Sketch.</desc>
    <defs></defs>
    <g id="Page-1" stroke="none" stroke-width="1" fill="none" fill-rule="evenodd">
        <g id="Artboard" transform="translate(-56.000000, -398.000000)">
            <g id="wide-logo" transform="translate(56.000000, 398.000000)">
                <g id="B" transform="translate(444.000000, 2.000000)">
                    <rect id="Rectangle" fill="#E3B00E" x="168" y="0" width="14" height="35" rx="7"></rect>
                    <rect id="Rectangle" fill="#E3B00E" x="28" y="0" width="14" height="35" rx="7"></rect>
                    <rect id="Rectangle" fill="#858278" x="0" y="0" width="14" height="35" rx="7"></rect>
                    <rect id="Rectangle" fill="#858278" x="56" y="0" width="14" height="35" rx="7"></rect>
                    <rect id="Rectangle" fill="#858278" x="84" y="0" width="14" height="35" rx="7"></rect>
                    <rect id="Rectangle" fill="#858278" x="112" y="0" width="14" height="35" rx="7"></rect>
                    <rect id="Rectangle" fill="#858278" x="140" y="0" width="14" height="35" rx="7"></rect>
                    <rect id="Rectangle" fill="#858278" x="196" y="0" width="14" height="35" rx="7"></rect>
                </g>
                <g id="M" transform="translate(0.000000, 2.000000)">
                    <rect id="Rectangle" fill="#E3B00E" x="28" y="0" width="14" height="35" rx="7"></rect>
                    <rect id="Rectangle" fill="#E3B00E" x="112" y="0" width="14" height="35" rx="7"></rect>
                    <rect id="Rectangle" fill="#E3B00E" x="140" y="0" width="14" height="35" rx="7"></rect>
                    <rect id="Rectangle" fill="#E3B00E" x="196" y="0" width="14" height="35" rx="7"></rect>
                    <rect id="Rectangle" fill="#858278" x="0" y="0" width="14" height="35" rx="7"></rect>
                    <rect id="Rectangle" fill="#858278" x="56" y="0" width="14" height="35" rx="7"></rect>
                    <rect id="Rectangle" fill="#858278" x="84" y="0" width="14" height="35" rx="7"></rect>
                    <rect id="Rectangle" fill="#858278" x="168" y="0" width="14" height="35" rx="7"></rect>
                </g>
                <path d="M224,4.39294504 L233.604184,4.39294504 L241.700984,21.1464315 L249.754717,4.39294504 L259.358901,4.39294504 L259.358901,34.5836751 L251.477441,34.5836751 L251.477441,16.6673503 L244.586546,31.611977 L238.772354,31.611977 L231.88146,16.6673503 L231.88146,34.5836751 L224,34.5836751 L224,4.39294504 Z M282.615669,12.3390074 C284.568098,13.3295784 286.082644,14.7292773 287.159352,16.538146 C288.23606,18.3470148 288.774405,20.45733 288.774405,22.869155 C288.774405,25.2522679 288.23606,27.3554052 287.159352,29.17863 C286.082644,31.0018549 284.568098,32.4087317 282.615669,33.3993027 C280.663239,34.3898737 278.380653,34.8851518 275.767842,34.8851518 C273.155032,34.8851518 270.865268,34.3898737 268.898482,33.3993027 C266.931696,32.4087317 265.409973,31.0018549 264.333265,29.17863 C263.256557,27.3554052 262.718212,25.2522679 262.718212,22.869155 C262.718212,20.45733 263.256557,18.3470148 264.333265,16.538146 C265.409973,14.7292773 266.931696,13.3295784 268.898482,12.3390074 C270.865268,11.3484364 273.155032,10.8531583 275.767842,10.8531583 C278.380653,10.8531583 280.663239,11.3484364 282.615669,12.3390074 Z M272.66694,19.1868335 C271.891711,20.1486923 271.504102,21.4048323 271.504102,22.9552912 C271.504102,24.5344624 271.891711,25.7977803 272.66694,26.745283 C273.44217,27.6927857 274.475793,28.1665299 275.767842,28.1665299 C277.031179,28.1665299 278.050447,27.6927857 278.825677,26.745283 C279.600906,25.7977803 279.988515,24.5344624 279.988515,22.9552912 C279.988515,21.4048323 279.600906,20.1486923 278.825677,19.1868335 C278.050447,18.2249747 277.031179,17.7440525 275.767842,17.7440525 C274.475793,17.7440525 273.44217,18.2249747 272.66694,19.1868335 Z M312.784865,11.9083265 C314.062558,12.6404877 315.053114,13.6812894 315.756563,15.0307629 C316.460012,16.3802364 316.811731,17.945028 316.811731,19.7251846 L316.811731,34.5836751 L308.111977,34.5836751 L308.111977,22.2231337 C308.111977,21.0746456 307.803325,20.1558689 307.186013,19.466776 C306.568701,18.7776832 305.757593,18.4331419 304.752666,18.4331419 C303.575466,18.4618541 302.642333,18.8925307 301.95324,19.7251846 C301.264147,20.5578385 300.919606,21.6488858 300.919606,22.9983593 L300.919606,34.5836751 L292.219852,34.5836751 L292.219852,11.1546349 L300.919606,11.1546349 L300.919606,14.7723544 C301.75226,13.4803053 302.793062,12.4969271 304.042043,11.8221903 C305.291023,11.1474536 306.73379,10.8100902 308.370386,10.8100902 C310.035693,10.8100902 311.507172,11.1761653 312.784865,11.9083265 Z M340.972929,14.2770714 C343.126344,16.5596915 344.203035,19.6820967 344.203035,23.6443806 C344.203035,24.2473369 344.188679,24.6923694 344.159967,24.9794914 L328.397047,24.9794914 C328.741593,26.0992673 329.308651,26.9606204 330.098236,27.5635767 C330.887822,28.166533 331.842488,28.4680066 332.962264,28.4680066 C334.771133,28.4680066 336.493839,27.7215005 338.130435,26.228466 L342.652584,30.6644791 C341.417959,32.0426648 339.917769,33.0906445 338.151969,33.8084495 C336.386168,34.5262546 334.412234,34.8851518 332.230107,34.8851518 C329.646008,34.8851518 327.40649,34.3898737 325.511485,33.3993027 C323.616479,32.4087317 322.159357,31.0162108 321.140074,29.2216981 C320.120791,27.4271854 319.611157,25.338404 319.611157,22.9552912 C319.611157,20.5434662 320.127969,18.425973 321.161608,16.6027482 C322.195247,14.7795233 323.645192,13.3654685 325.511485,12.3605414 C327.377778,11.3556143 329.531161,10.8531583 331.971698,10.8531583 C335.819133,10.8531583 338.819513,11.9944513 340.972929,14.2770714 Z M334.64192,17.8732568 C333.981539,17.1267395 333.120186,16.7534865 332.057834,16.7534865 C331.052907,16.7534865 330.220266,17.1123836 329.559885,17.8301887 C328.899504,18.5479937 328.454472,19.5098381 328.224774,20.7157506 L335.589418,20.7157506 C335.61813,19.5672625 335.3023,18.619774 334.64192,17.8732568 Z M357.123462,41.6683757 C355.515579,42.7737955 353.534466,43.3264971 351.180066,43.3264971 C349.744455,43.3264971 348.423714,43.1183368 347.217801,42.7020098 C346.011889,42.2856829 344.82035,41.6324901 343.64315,40.7424118 L347.26087,34.9282199 C347.806401,35.4163273 348.323213,35.7608686 348.811321,35.961854 C349.299428,36.1628394 349.830596,36.2633306 350.40484,36.2633306 C351.610753,36.2633306 352.45775,35.7608746 352.945857,34.7559475 L353.376538,33.9376538 L343.686218,11.1546349 L352.601313,11.1546349 L357.726415,25.4963084 L362.076292,11.1546349 L370.732978,11.1546349 L360.913454,36.5648072 C359.994663,38.8617834 358.731345,40.5629559 357.123462,41.6683757 Z M393.860541,5.31890894 C395.611986,5.9362213 396.961439,6.81910829 397.908942,7.96759639 C398.856444,9.1160845 399.330189,10.4655378 399.330189,12.0159967 C399.330189,13.5377435 398.8708,14.8871967 397.95201,16.064397 C397.033219,17.2415974 395.784257,18.0598829 394.205086,18.5192781 C396.042667,18.8925367 397.514145,19.7754237 398.619565,21.1679655 C399.724985,22.5605074 400.277687,24.2186122 400.277687,26.1423298 C400.277687,27.8363497 399.789587,29.3221839 398.813372,30.5998769 C397.837157,31.87757 396.451814,32.8609482 394.657301,33.550041 C392.862788,34.2391339 390.774007,34.5836751 388.390894,34.5836751 L372.92945,34.5836751 L372.92945,4.39294504 L387.744873,4.39294504 C390.070561,4.39294504 392.109097,4.70159659 393.860541,5.31890894 Z M389.38146,15.5260459 C389.89828,15.0522946 390.156686,14.4134577 390.156686,13.609516 C390.156686,12.8342865 389.89828,12.2241614 389.38146,11.7791222 C388.864641,11.3340831 388.161202,11.1115669 387.271124,11.1115669 L381.844545,11.1115669 L381.844545,16.2366694 L387.271124,16.2366694 C388.161202,16.2366694 388.864641,15.9997973 389.38146,15.5260459 Z M390.005947,27.1328958 C390.680684,26.6160762 391.018048,25.9126378 391.018048,25.0225595 C391.018048,24.1899056 390.680684,23.5367128 390.005947,23.0629614 C389.331211,22.5892101 388.419612,22.3666939 387.271124,22.3954061 L381.844545,22.3954061 L381.844545,27.8650533 L387.271124,27.8650533 C388.419612,27.8937655 389.331211,27.6497155 390.005947,27.1328958 Z M404.02461,11.1546349 L412.724364,11.1546349 L412.724364,34.5836751 L404.02461,34.5836751 L404.02461,11.1546349 Z M411.561526,1.24897457 C412.39418,2.08162845 412.8105,3.15831989 412.8105,4.47908121 C412.8105,5.79984253 412.39418,6.87653398 411.561526,7.70918786 C410.728872,8.54184174 409.652181,8.95816243 408.331419,8.95816243 C407.010658,8.95816243 405.926788,8.54184174 405.079779,7.70918786 C404.232769,6.87653398 403.80927,5.79984253 403.80927,4.47908121 C403.80927,3.15831989 404.232769,2.08162845 405.079779,1.24897457 C405.926788,0.416320693 407.010658,0 408.331419,0 C409.652181,0 410.728872,0.416320693 411.561526,1.24897457 Z M434,33.4639048 C433.167346,33.9233001 432.155256,34.2893752 430.9637,34.5621411 C429.772143,34.834907 428.573427,34.9712879 427.367514,34.9712879 C424.869553,34.9712879 422.874085,34.2822054 421.38105,32.9040197 C419.888016,31.525834 419.141509,29.6452129 419.141509,27.2621001 L419.141509,17.9163249 L415.911403,17.9163249 L415.911403,12.3605414 L419.141509,12.3605414 L419.141509,5.85726005 L427.798195,5.85726005 L427.798195,12.3605414 L433.569319,12.3605414 L433.569319,17.9163249 L427.798195,17.9163249 L427.798195,25.9269893 C427.798195,26.6735066 427.970466,27.2333862 428.315012,27.6066448 C428.659559,27.9799034 429.147659,28.1665299 429.779327,28.1665299 C430.324859,28.1665299 431.214924,27.9368358 432.449549,27.4774405 L434,33.4639048 Z" id="MoneyBit" fill="#2C2B28"></path>
            </g>
        </g>
    </g>
</svg>